#!OML:ASF F:\VICON\USERDATA\INSTALL\rory3\rory3.ASF
:FULLY-SPECIFIED
:DEGREES
33
root -0.199724 18.7362 -8.22515 4.2294 -0.668986 -5.34624
lowerback 13.4263 1.36088 3.86833
upperback 1.59613 2.35898 -0.100366
thorax -5.67975 1.06881 -2.7136
lowerneck -7.56794 -0.855337 -0.514287
upperneck -8.82469 -1.08083 0.393111
head -1.47197 -0.524446 0.195945
rclavicle -3.77691e-015 7.95139e-016
rhumerus -34.1038 23.6802 -88.1527
rradius 101.153
rwrist -3.203
rhand -32.3633 28.3898
rfingers 7.12502
rthumb -5.59951 -1.51617
lclavicle -3.77691e-015 7.95139e-016
lhumerus -56.2902 -2.81733 87.4157
lradius 107.644
lwrist 26.6119
lhand -33.1488 10.8926
lfingers 7.12502
lthumb -6.35791 40.7771
rfemur 17.8008 7.73057 32.9571
rtibia 45.677
rfoot 31.4515 -3.44933
rtoes 19.0051
lfemur -30.8764 -5.78653 -13.7349
ltibia 19.9014
lfoot 9.22161 2.15374
ltoes -23.964
34
root -0.187943 18.6649 -7.7126 3.75185 -0.34141 -4.68951
lowerback 13.5746 1.22799 3.34665
upperback 1.76314 2.08651 -0.464222
thorax -5.60921 0.947189 -2.757
lowerneck -7.48463 -0.882916 -0.310324
upperneck -8.5512 -1.11889 0.639015
head -1.39827 -0.552482 0.237094
rclavicle 7.25564e-015 -5.56597e-015
rhumerus -34.8185 23.2178 -88.4784
rradius 99.3269
rwrist -3.30714
rhand -31.3398 28.5024
rfingers 7.12502
rthumb -4.61126 -1.4274
lclavicle 7.25564e-015 -5.56597e-015
lhumerus -55.1086 -3.22965 87.0118
lradius 107.501
lwrist 27.1991
lhand -32.5981 10.3935
lfingers 7.12502
lthumb -5.82619 40.2934
rfemur 16.2798 6.42863 31.7198
rtibia 50.7483
rfoot 31.2088 -4.83384
rtoes 16.286
lfemur -28.9937 -5.25763 -15.272
ltibia 18.4625
lfoot 9.65772 3.65541
ltoes -20.6941
35
root -0.190156 18.5826 -7.2106 3.30639 -0.435795 -4.02439
lowerback 13.9013 1.2792 2.43244
upperback 1.82395 2.01145 -0.706406
thorax -5.7534 0.925112 -2.49259
lowerneck -7.34004 -0.915351 -0.466008
upperneck -8.16163 -1.13512 1.0557
head -1.29581 -0.560385 0.389635
rclavicle 1.03368e-014 1.43125e-014
rhumerus -36.0501 22.4485 -88.8245
rradius 97.6138
rwrist -3.43446
rhand -30.6894 28.3135
rfingers 7.12502
rthumb -3.98316 -1.62906
lclavicle 1.03368e-014 1.43125e-014
lhumerus -53.8956 -3.6272 86.7402
lradius 107.324
lwrist 28.1363
lhand -32.0384 10.6735
lfingers 7.12502
lthumb -5.28583 40.5875
rfemur 14.5864 5.43767 30.3802
rtibia 55.9011
rfoot 30.1455 -6.46038
rtoes 11.9651
lfemur -27.08 -4.23225 -16.7489
ltibia 17.3664
lfoot 10.5894 4.36029
ltoes -18.9284
36
root -0.184699 18.4891 -6.70681 2.94165 0.0358767 -3.24079
lowerback 14.2379 1.11891 1.56574
upperback 1.77436 1.65975 -0.925194
thorax -6.03077 0.76498 -2.18037
lowerneck -7.17736 -0.912785 -0.612268
upperneck -7.63467 -1.11596 1.32448
head -1.15499 -0.549092 0.494551
rclavicle -1.19271e-014 1.03368e-014
rhumerus -37.4164 21.6727 -89.041
rradius 95.9409
rwrist -3.33464
rhand -30.4311 27.8678
rfingers 7.12502
rthumb -3.73379 -2.07919
lclavicle -1.19271e-014 1.03368e-014
lhumerus -52.7166 -4.0621 86.6252
lradius 107.178
lwrist 29.3388
lhand -32.8294 12.0511
lfingers 7.12502
lthumb -6.04947 41.9448
rfemur 12.8431 3.82626 28.7802
rtibia 60.9526
rfoot 30.6091 -8.2244
rtoes 18.8638
lfemur -25.4959 -3.73449 -18.2621
ltibia 17.0572
lfoot 10.732 3.1921
ltoes -16.5879
37
root -0.168059 18.3943 -6.17959 2.64702 0.497182 -2.42536
lowerback 14.2614 0.905341 0.873144
upperback 1.70373 1.24936 -1.24735
thorax -6.14583 0.57541 -2.05321
lowerneck -6.75197 -0.83635 -0.574319
upperneck -7.21464 -1.01733 1.44669
head -1.09348 -0.502554 0.527021
rclavicle -2.18663e-015 -7.95139e-016
rhumerus -38.6447 20.8826 -89.2721
rradius 94.0262
rwrist -3.06046
rhand -30.1693 26.863
rfingers 7.12502
rthumb -3.48096 -3.08837
lclavicle -2.18663e-015 -7.95139e-016
lhumerus -51.5013 -4.57162 86.4008
lradius 107
lwrist 30.5679
lhand -33.5893 12.5583
lfingers 7.12502
lthumb -6.78313 42.4296
rfemur 11.2205 2.07015 26.8948
rtibia 65.7945
rfoot 28.5994 -9.15899
rtoes 16.3896
lfemur -24.2194 -3.22356 -19.8273
ltibia 17.7994
lfoot 9.38429 0.563641
ltoes -11.8255
38
root -0.1458 18.2934 -5.63969 2.16375 0.479252 -1.7898
lowerback 14.2479 0.891483 0.357122
upperback 1.69097 1.1299 -1.56259
thorax -6.16048 0.525748 -2.07175
lowerneck -5.9157 -0.754887 -0.570147
upperneck -7.18609 -0.903049 1.65164
head -1.22204 -0.450639 0.595417
rclavicle -1.19271e-014 -8.74653e-015
rhumerus -40.1342 19.8221 -89.449
rradius 92.3148
rwrist -2.93677
rhand -29.9833 26.7252
rfingers 7.12502
rthumb -3.30128 -3.22903
lclavicle -1.19271e-014 -8.74653e-015
lhumerus -50.288 -5.39792 86.26
lradius 106.979
lwrist 31.6402
lhand -33.4888 12.603
lfingers 7.12502
lthumb -6.68605 42.4774
rfemur 9.82176 0.741403 25.0418
rtibia 70.5229
rfoot 27.6614 -9.92041
rtoes 19.3275
lfemur -23.1058 -2.21469 -21.2499
ltibia 19.7008
lfoot 6.38241 -1.82439
ltoes -12.7666
39
root -0.124502 18.1799 -5.11488 1.70848 0.930306 -1.08319
lowerback 14.2031 0.712256 -0.221376
upperback 1.81086 0.78797 -1.83374
thorax -6.02524 0.371073 -1.96271
lowerneck -5.46645 -0.678758 -0.566607
upperneck -6.98956 -0.798309 1.81305
head -1.23544 -0.401418 0.64681
rclavicle 5.96354e-015 -2.38542e-015
rhumerus -41.4004 18.7333 -89.4047
rradius 90.7278
rwrist -2.56045
rhand -30.1839 27.7743
rfingers 7.12502
rthumb -3.4951 -2.17674
lclavicle 5.96354e-015 -2.38542e-015
lhumerus -48.7661 -6.15749 86.2132
lradius 107.106
lwrist 32.5325
lhand -33.5012 12.756
lfingers 7.12502
lthumb -6.69804 42.6301
rfemur 8.28494 -0.890788 23.1516
rtibia 75.174
rfoot 26.2396 -10.9794
rtoes 20.7874
lfemur -22.3247 -1.64493 -22.6907
ltibia 22.5223
lfoot 2.73575 -2.88772
ltoes -16.4518
40
root -0.124474 18.0627 -4.64279 1.32083 0.694854 -0.64049
lowerback 15.0095 0.802757 -0.960738
upperback 1.77531 0.76499 -1.96763
thorax -6.51743 0.37341 -1.69855
lowerneck -5.57432 -0.657971 -0.579938
upperneck -6.49116 -0.773318 1.90592
head -1.06187 -0.387095 0.674196
rclavicle 1.68967e-014 1.59028e-014
rhumerus -42.2798 17.6297 -89.2309
rradius 88.7173
rwrist -1.68454
rhand -30.8089 28.3966
rfingers 7.12502
rthumb -4.09863 -1.54372
lclavicle 1.68967e-014 1.59028e-014
lhumerus -46.8986 -6.92498 86.2065
lradius 107.175
lwrist 33.2052
lhand -33.0971 12.0293
lfingers 7.12502
lthumb -6.30794 41.9154
rfemur 6.11688 -1.76132 21.6592
rtibia 79.878
rfoot 25.3543 -11.8189
rtoes 21.0876
lfemur -21.7037 -1.21872 -23.4202
ltibia 25.7191
lfoot -1.03278 -3.0815
ltoes -15.823
41
root -0.118793 17.9558 -4.16779 1.18297 1.18003 -0.371005
lowerback 15.7543 0.601457 -1.28023
upperback 1.65558 0.414249 -2.10111
thorax -7.06615 0.208285 -1.60229
lowerneck -5.73124 -0.637195 -0.527582
upperneck -6.25521 -0.748934 1.97506
head -0.963111 -0.374783 0.684833
rclavicle 7.95139e-015 7.95139e-015
rhumerus -43.0706 16.3749 -89.0467
rradius 86.5597
rwrist -0.500234
rhand -31.3079 28.1769
rfingers 7.12502
rthumb -4.58049 -1.75362
lclavicle 7.95139e-015 7.95139e-015
lhumerus -44.8699 -7.71085 86.1764
lradius 107.257
lwrist 33.5998
lhand -32.2517 10.8127
lfingers 7.12502
lthumb -5.49173 40.7215
rfemur 3.71842 -3.29619 20.3604
rtibia 84.3062
rfoot 24.465 -12.0829
rtoes 22.1135
lfemur -21.3939 -1.66078 -23.8867
ltibia 28.8791
lfoot -3.53746 -3.06687
ltoes -11.9287
